<svg xmlns="http://www.w3.org/2000/svg" width="16" height="16" viewBox="0 0 16 16" fill="none">
  <g clip-path="url(#clip0_2653_11170)">
    <path d="M8 0C3.58853 0 0 3.58853 0 8C0 12.4115 3.58853 16 8 16C12.4115 16 16 12.4108 16 8C16 3.58916 12.4115 0 8 0ZM8 14.7607C4.27266 14.7607 1.23934 11.728 1.23934 8C1.23934 4.27203 4.27266 1.23934 8 1.23934C11.7273 1.23934 14.7607 4.27203 14.7607 8C14.7607 11.728 11.728 14.7607 8 14.7607Z" fill="white"/>
    <path d="M11.0982 7.32457H8.61949V4.84588C8.61949 4.50382 8.34249 4.2262 7.9998 4.2262C7.65711 4.2262 7.38011 4.50382 7.38011 4.84588V7.32457H4.90143C4.55874 7.32457 4.28174 7.6022 4.28174 7.94426C4.28174 8.28632 4.55874 8.56395 4.90143 8.56395H7.38011V11.0426C7.38011 11.3847 7.65711 11.6623 7.9998 11.6623C8.34249 11.6623 8.61949 11.3847 8.61949 11.0426V8.56395H11.0982C11.4409 8.56395 11.7179 8.28632 11.7179 7.94426C11.7179 7.6022 11.4409 7.32457 11.0982 7.32457Z" fill="white"/>
  </g>
  <defs>
    <clipPath id="clip0_2653_11170">
      <rect width="16" height="16" fill="white"/>
    </clipPath>
  </defs>
</svg>