<svg width="64" height="64" viewBox="0 0 64 64" fill="none" xmlns="http://www.w3.org/2000/svg">
<g clip-path="url(#clip0_2640_21932)">
<path d="M31.6051 0.00238424C13.8545 0.216634 -0.22954 14.6768 0.00308475 32.4271C0.0713347 37.636 1.38596 42.5435 3.65946 46.8681L0.517585 61.5779C0.274585 62.7154 1.28471 63.7255 2.42233 63.4826L17.1321 60.3408C21.4567 62.6143 26.3643 63.9289 31.5731 63.9971C49.3235 64.2298 63.7836 50.1458 63.9978 32.3951C64.2148 14.409 49.5912 -0.214616 31.6051 0.00238424Z" fill="#4FBA6F"/>
<path d="M32 60.3597C45.2325 60.3597 55.9595 49.6326 55.9595 36.4002C55.9595 23.1677 45.2325 12.4407 32 12.4407C18.7676 12.4407 8.04053 23.1677 8.04053 36.4002C8.04053 49.6326 18.7676 60.3597 32 60.3597Z" fill="#34A656"/>
<path d="M63.9992 31.9994C63.9992 49.5851 49.996 63.7761 32.412 63.997C30.9493 64.0161 29.5077 63.9361 28.0955 63.7622C44.1647 62.0196 56.5227 48.5069 56.5227 31.9994C56.5227 15.5354 44.0691 1.97913 28.0693 0.2365C29.3565 0.08 30.6677 0 31.9998 0C49.6726 0 63.9992 14.3267 63.9992 31.9994Z" fill="#34A656"/>
<path d="M31.9999 55.9603C45.2328 55.9603 55.9602 45.2329 55.9602 32C55.9602 18.7672 45.2328 8.03979 31.9999 8.03979C18.767 8.03979 8.03967 18.7672 8.03967 32C8.03967 45.2329 18.767 55.9603 31.9999 55.9603Z" fill="#F5F7F8"/>
<path d="M55.9594 32.0002C55.9594 45.2334 45.2332 55.9597 31.9999 55.9597C30.0989 55.9597 28.2502 55.7384 26.4779 55.3202C39.0985 55.0185 49.2377 44.6945 49.2377 32.0002C49.2377 19.3058 39.0985 8.98178 26.4779 8.68003C28.2502 8.26178 30.0989 8.04053 31.9999 8.04053C45.2332 8.04065 55.9594 18.7669 55.9594 32.0002Z" fill="#D9E7EB"/>
<path d="M28.5698 41.2951C27.7331 41.2951 26.9306 40.9627 26.3389 40.3711L22.4623 36.4945C21.2302 35.2624 21.2302 33.2649 22.4623 32.0327C23.6944 30.8006 25.6919 30.8006 26.9241 32.0327L28.5698 33.6785L37.0748 25.1734C38.3069 23.9412 40.3044 23.9412 41.5366 25.1734C42.7686 26.4054 42.7686 28.403 41.5366 29.6351L30.8007 40.3711C30.2091 40.9627 29.4067 41.2951 28.5698 41.2951Z" fill="#4FBA6F"/>
</g>
<defs>
<clipPath id="clip0_2640_21932">
<rect width="64" height="64" fill="white"/>
</clipPath>
</defs>
</svg>
