<svg xmlns="http://www.w3.org/2000/svg" width="63" height="63" viewBox="0 0 63 63" fill="none">
    <path d="M53.3775 13.0759L41.5129 1.85136C40.251 0.657439 38.5992 0 36.862 0H14.2734C10.5418 0 7.50586 3.03594 7.50586 6.76758V56.2324C7.50586 59.9641 10.5418 63 14.2734 63H48.7266C52.4582 63 55.4941 59.9641 55.4941 56.2324V17.9922C55.4941 16.1404 54.7226 14.3485 53.3775 13.0759ZM49.7923 14.7656H40.6055C40.2662 14.7656 39.9902 14.4896 39.9902 14.1504V5.49232L49.7923 14.7656ZM48.7266 59.3086H14.2734C12.5772 59.3086 11.1973 57.9286 11.1973 56.2324V6.76758C11.1973 5.07138 12.5772 3.69141 14.2734 3.69141H36.2988V14.1504C36.2988 16.5251 38.2308 18.457 40.6055 18.457H51.8027V56.2324C51.8027 57.9286 50.4228 59.3086 48.7266 59.3086Z" fill="#7F848A"/>
    <path d="M44.666 24.6094H17.5957C16.5764 24.6094 15.75 25.4358 15.75 26.4551C15.75 27.4744 16.5764 28.3008 17.5957 28.3008H44.666C45.6853 28.3008 46.5117 27.4744 46.5117 26.4551C46.5117 25.4358 45.6853 24.6094 44.666 24.6094Z" fill="#7F848A"/>
    <path d="M44.666 34.4531H17.5957C16.5764 34.4531 15.75 35.2795 15.75 36.2988C15.75 37.3181 16.5764 38.1445 17.5957 38.1445H44.666C45.6853 38.1445 46.5117 37.3181 46.5117 36.2988C46.5117 35.2795 45.6853 34.4531 44.666 34.4531Z" fill="#7F848A"/>
    <path d="M26.5437 44.2969H17.5957C16.5764 44.2969 15.75 45.1233 15.75 46.1426C15.75 47.1619 16.5764 47.9883 17.5957 47.9883H26.5437C27.563 47.9883 28.3894 47.1619 28.3894 46.1426C28.3894 45.1233 27.563 44.2969 26.5437 44.2969Z" fill="#7F848A"/>
</svg>