<svg width="200" height="200" viewBox="0 0 200 200" fill="none" xmlns="http://www.w3.org/2000/svg">
<g clip-path="url(#clip0_3112_3851)">
<rect x="0.5" y="0.5" width="199" height="199" rx="7.5" fill="#F6F6F6" stroke="#BEC1C5" stroke-linecap="round" stroke-dasharray="4 4"/>
<path d="M125.094 69H73.9062C70.6443 69 68 71.6443 68 74.9062V126.094C68 129.356 70.6443 132 73.9062 132H125.094C128.356 132 131 129.356 131 126.094V74.9062C131 71.6443 128.356 69 125.094 69ZM127.062 126.094C127.062 127.181 126.181 128.062 125.094 128.062H73.9062C72.8189 128.062 71.9375 127.181 71.9375 126.094V74.9062C71.9375 73.8189 72.8189 72.9375 73.9062 72.9375H125.094C126.181 72.9375 127.062 73.8189 127.062 74.9062V126.094Z" fill="#7F848A"/>
<path d="M110.742 103.04C109.974 102.276 108.734 102.276 107.966 103.04L103.437 107.568L94.9916 99.1219C94.2236 98.3585 92.9836 98.3585 92.2156 99.1219L78.4344 112.903C77.6732 113.68 77.6854 114.926 78.4618 115.687C78.823 116.041 79.3067 116.243 79.8125 116.25H119.187C120.275 116.256 121.161 115.38 121.168 114.293C121.171 113.764 120.961 113.256 120.585 112.883L110.742 103.04Z" fill="#7F848A"/>
<path d="M105.406 96.5625C108.668 96.5625 111.312 93.9182 111.312 90.6562C111.312 87.3943 108.668 84.75 105.406 84.75C102.144 84.75 99.5 87.3943 99.5 90.6562C99.5 93.9182 102.144 96.5625 105.406 96.5625Z" fill="#7F848A"/>
</g>
<defs>
<clipPath id="clip0_3112_3851">
<rect width="200" height="200" fill="white"/>
</clipPath>
</defs>
</svg>
