<svg width="97" height="32" viewBox="0 0 97 32" fill="none" xmlns="http://www.w3.org/2000/svg">
<g clip-path="url(#clip0_2641_21956)">
<path d="M83.9582 31.9999H51.5447C49.0066 31.9999 46.9492 29.9809 46.9492 27.4901V12.672C46.9492 10.1811 49.0066 8.16211 51.5447 8.16211H83.9582C86.4963 8.16211 88.5537 10.1811 88.5537 12.672V27.4946C88.549 29.9809 86.4917 31.9999 83.9582 31.9999Z" fill="#F47421"/>
<path d="M92.1223 12.5905C91.7016 12.5905 91.3549 12.2547 91.3549 11.8373C91.3549 8.39821 88.5023 5.59884 84.9979 5.59884C84.5772 5.59884 84.2305 5.26309 84.2305 4.84568C84.2305 4.42827 84.5726 4.09253 84.9979 4.09253C89.3484 4.09253 92.8852 7.56339 92.8852 11.8328C92.8852 12.2547 92.543 12.5905 92.1223 12.5905Z" fill="#F47421"/>
<path d="M96.2331 11.7964C95.8124 11.7964 95.4657 11.4607 95.4657 11.0432C95.4657 5.78024 91.1014 1.50177 85.743 1.50177C85.3223 1.50177 84.9756 1.16603 84.9756 0.748618C84.9756 0.331207 85.3223 0 85.743 0C91.9474 0 97.0006 4.95449 97.0006 11.0478C97.0006 11.4607 96.6585 11.7964 96.2331 11.7964Z" fill="#F47421"/>
<path d="M7.20762 24.4503H2.57514V15.0177C2.57514 14.4143 1.98337 13.9016 1.28526 13.9016C0.591774 13.9016 0 14.4143 0 15.0177V25.4349C0 26.0973 0.624136 26.6326 1.39159 26.6326H7.21224C7.91035 26.6326 8.46051 26.1517 8.46051 25.5347C8.45589 24.9358 7.89648 24.4503 7.20762 24.4503Z" fill="#1D1D1B"/>
<path d="M17.5684 24.4322H12.9128V21.4195H16.9673C17.6793 21.4195 18.2341 20.9386 18.2341 20.3216C18.2341 19.7272 17.6562 19.2236 16.9673 19.2236H12.9128V16.2609H17.3603C18.0815 16.2609 18.6502 15.7845 18.6502 15.1811C18.6502 14.5686 18.0723 14.0649 17.3603 14.0649H11.7662C10.9895 14.0649 10.333 14.6275 10.333 15.2945V25.394C10.333 25.7661 10.5041 26.6236 12.0945 26.6236H17.5684C18.2803 26.6236 18.8582 26.1154 18.8582 25.4938C18.8536 24.9222 18.2665 24.4322 17.5684 24.4322Z" fill="#1D1D1B"/>
<path d="M27.6976 15.0677C27.4804 14.5278 27.1105 13.9062 26.172 13.9062C25.4646 13.9062 24.9561 14.301 24.6694 15.0723L20.6472 25.2626C20.5964 25.3896 20.5732 25.5847 20.5732 25.6845C20.5732 26.3197 21.1465 26.8006 21.9001 26.8006C22.3301 26.8006 22.9034 26.5284 23.1114 26.0248C23.1114 26.0202 23.116 26.0157 23.116 26.0112L23.8696 24.0103H28.4512L29.2187 26.0021C29.399 26.5239 29.9954 26.8052 30.4623 26.8052C31.2344 26.8052 31.7892 26.3378 31.7892 25.689C31.7892 25.5892 31.7661 25.3941 31.7152 25.2762L27.6976 15.0677ZM27.6329 21.8053H24.711L26.172 17.9533L27.6329 21.8053Z" fill="#1D1D1B"/>
<path d="M37.7672 14.0513H35.437C34.6372 14.0513 33.9854 14.6093 33.9854 15.299V25.3849C33.9854 26.0745 34.6372 26.6326 35.437 26.6326H37.7672C43.2873 26.6326 43.8837 23.2615 43.8837 21.8142V18.7245C43.8837 17.318 43.2873 14.0513 37.7672 14.0513ZM38.1185 24.4321H36.5605V16.2472H38.1185C40.236 16.2472 41.3086 17.0775 41.3086 18.7199V21.8097C41.3086 23.5746 40.2637 24.4321 38.1185 24.4321Z" fill="#1D1D1B"/>
<path d="M57.0412 14.0696H54.0083C53.2085 14.0696 52.5566 14.6276 52.5566 15.3173V25.6482C52.5566 26.2698 53.1484 26.7961 53.8465 26.7961C54.5446 26.7961 55.1364 26.2698 55.1364 25.6482V22.3316H57.0458C60.1942 22.3316 62.1498 20.7572 62.1498 18.2255C62.1452 15.6213 60.2358 14.0696 57.0412 14.0696ZM57.0412 20.1357H55.1318V16.2655H57.0412C59.3066 16.2655 59.5701 17.3726 59.5701 18.2074C59.5701 19.1057 59.2788 20.1357 57.0412 20.1357Z" fill="white"/>
<path d="M69.6625 15.0677C69.4452 14.5278 69.0753 13.9062 68.1368 13.9062C67.4295 13.9062 66.9209 14.301 66.6343 15.0723L62.6121 25.2626C62.5612 25.3896 62.5381 25.5847 62.5381 25.6845C62.5381 26.3197 63.1114 26.8006 63.865 26.8006C64.2949 26.8006 64.8682 26.5284 65.0762 26.0248C65.0762 26.0202 65.0809 26.0157 65.0809 26.0112L65.8344 24.0103H70.4161L71.1835 26.0021C71.3638 26.5239 71.9602 26.8052 72.4272 26.8052C73.1993 26.8052 73.7541 26.3378 73.7541 25.689C73.7541 25.5892 73.7309 25.3941 73.6801 25.2762L69.6625 15.0677ZM69.6024 21.8053H66.6805L68.1414 17.9533L69.6024 21.8053Z" fill="white"/>
<path d="M82.0897 13.9016C81.6459 13.9016 81.2621 14.074 81.0495 14.3962L78.3356 19.1329L75.6033 14.3689C75.4045 14.0786 75.0208 13.9016 74.5769 13.9016C73.8788 13.9016 73.2686 14.4325 73.2686 15.0313C73.2686 15.2174 73.3333 15.4215 73.4119 15.5713L77.0226 21.7145V25.6436C77.0226 26.2788 77.6098 26.7914 78.331 26.7914C79.0522 26.7914 79.6394 26.2788 79.6394 25.6436V21.7462L83.264 15.544C83.3287 15.417 83.3934 15.2174 83.3934 15.0268C83.3981 14.4324 82.7878 13.9016 82.0897 13.9016Z" fill="white"/>
</g>
<defs>
<clipPath id="clip0_2641_21956">
<rect width="97" height="32" fill="white"/>
</clipPath>
</defs>
</svg>
