<svg xmlns="http://www.w3.org/2000/svg" width="72" height="73" viewBox="0 0 72 73" fill="none">
  <g clip-path="url(#clip0_2654_11772)">
    <path d="M61.7855 69.2971H10.2133C6.67392 69.2971 3.38623 67.439 1.5256 64.3859C-0.335572 61.3334 -0.50482 57.5214 1.07831 54.3112L26.8644 9.5502C28.5948 6.04246 32.1309 3.82617 35.9994 3.82617C39.8679 3.82617 43.404 6.04246 45.1344 9.5502L70.9204 54.3112C72.5036 57.5214 72.3343 61.3334 70.4732 64.3859C68.6125 67.439 65.3254 69.2971 61.7855 69.2971Z" fill="#F0C419"/>
    <path d="M61.7912 69.297H35.999V3.82613C39.8769 3.80161 43.4272 6.02682 45.1389 9.55517L70.9184 54.3145C72.5038 57.5225 72.3367 61.3344 70.4772 64.387C68.6171 67.4401 65.3305 69.2981 61.7912 69.297Z" fill="#F29C1F"/>
    <path d="M40 52.9998C40 55.2092 38.2088 57 35.9998 57C33.7908 57 32 55.2092 32 52.9998C32 50.7908 33.7908 49 35.9998 49C38.2088 49 40 50.7908 40 52.9998Z" fill="#35495E"/>
    <path d="M40 52.9998C40 54.0609 39.5788 55.0782 38.8288 55.8287C38.0783 56.5787 37.0611 57 36 57V49C37.0611 48.9996 38.0783 49.4208 38.8288 50.1713C39.5788 50.9213 40 51.9391 40 52.9998Z" fill="#2C3E50"/>
    <path d="M35.9998 19C38.2088 19 40 20.7908 40 23.0003V42.0002C40 44.2092 38.2088 46 35.9998 46C33.7908 46 32 44.2092 32 42.0002V23.0003C32 20.7908 33.7908 19 35.9998 19Z" fill="#35495E"/>
    <path d="M40 23.0003V42.0002C40 43.0613 39.5788 44.0786 38.8288 44.8287C38.0783 45.5792 37.0611 46.0004 36 46V19C37.0611 18.9987 38.0796 19.4195 38.8301 20.17C39.5801 20.9205 40.0013 21.9387 40 23.0003Z" fill="#2C3E50"/>
  </g>
  <defs>
    <clipPath id="clip0_2654_11772">
      <rect width="72" height="73" fill="white"/>
    </clipPath>
  </defs>
</svg>