<svg xmlns="http://www.w3.org/2000/svg" width="14" height="14" viewBox="0 0 14 14" fill="none">
  <g clip-path="url(#clip0_2653_11074)">
    <rect width="13" height="13" transform="translate(0.5 0.5)" fill="#F6F6F6"/>
    <path d="M13.0357 1.89026H0.964286C0.707478 1.89026 0.5 2.09774 0.5 2.35454V11.6403C0.5 11.8971 0.707478 12.1045 0.964286 12.1045H13.0357C13.2925 12.1045 13.5 11.8971 13.5 11.6403V2.35454C13.5 2.09774 13.2925 1.89026 13.0357 1.89026ZM1.54464 2.9349H12.4554V4.67597H1.54464V2.9349ZM12.4554 11.0599H1.54464V5.95276H12.4554V11.0599ZM9.01674 10.1313H11.4107C11.4746 10.1313 11.5268 10.0791 11.5268 10.0153V8.97062C11.5268 8.90678 11.4746 8.85455 11.4107 8.85455H9.01674C8.9529 8.85455 8.90067 8.90678 8.90067 8.97062V10.0153C8.90067 10.0791 8.9529 10.1313 9.01674 10.1313Z" fill="black" fill-opacity="0.85"/>
  </g>
  <defs>
    <clipPath id="clip0_2653_11074">
      <rect width="13" height="13" fill="white" transform="translate(0.5 0.5)"/>
    </clipPath>
  </defs>
</svg>