<svg width="14" height="18" viewBox="0 0 14 18" fill="none" xmlns="http://www.w3.org/2000/svg">
<g clip-path="url(#clip0_2653_11118)">
<path d="M0.348633 4.06897L2.38681 7.73366V9.96901L0.351017 13.6265L0.348633 4.06897Z" fill="#5B57A2"/>
<path d="M8.17383 6.40004L10.0837 5.22254L13.9923 5.21887L8.17383 8.80441V6.40004Z" fill="#D90751"/>
<path d="M8.16349 4.04735L8.17429 8.89927L6.13135 7.63656V0.383789L8.16363 4.04735H8.16349Z" fill="#FAB718"/>
<path d="M13.9927 5.21892L10.084 5.22259L8.16349 4.04735L6.13135 0.383789L13.9926 5.21892H13.9927Z" fill="#ED6F26"/>
<path d="M8.17429 13.6468V11.2928L6.13135 10.0541L6.13247 17.314L8.17429 13.6468Z" fill="#63B22F"/>
<path d="M10.0795 12.48L2.38667 7.73366L0.348633 4.06897L13.9846 12.4753L10.0793 12.48H10.0795Z" fill="#1487C9"/>
<path d="M6.13232 17.314L8.17386 13.6468L10.0789 12.48L13.984 12.4752L6.13232 17.314Z" fill="#017F36"/>
<path d="M0.351074 13.6265L6.1482 10.0542L4.19923 8.85132L2.38686 9.969L0.351074 13.6265Z" fill="#984995"/>
</g>
<defs>
<clipPath id="clip0_2653_11118">
<rect width="13.6047" height="16.9302" fill="white" transform="translate(0.348633 0.383789)"/>
</clipPath>
</defs>
</svg>
