<svg xmlns="http://www.w3.org/2000/svg" width="17" height="16" viewBox="0 0 17 16" fill="none">
    <g clip-path="url(#clip0_2641_22070)">
        <path d="M8.5 0C4.08853 0 0.5 3.58853 0.5 8C0.5 12.4115 4.08853 16 8.5 16C12.9115 16 16.5 12.4108 16.5 8C16.5 3.58916 12.9115 0 8.5 0ZM8.5 14.7607C4.77266 14.7607 1.73934 11.728 1.73934 8C1.73934 4.27203 4.77266 1.23934 8.5 1.23934C12.2273 1.23934 15.2607 4.27203 15.2607 8C15.2607 11.728 12.228 14.7607 8.5 14.7607Z" fill="white"/>
        <path d="M11.5987 7.32445H9.11998V4.84576C9.11998 4.5037 8.84298 4.22607 8.50029 4.22607C8.1576 4.22607 7.8806 4.5037 7.8806 4.84576V7.32445H5.40191C5.05923 7.32445 4.78223 7.60207 4.78223 7.94414C4.78223 8.2862 5.05923 8.56382 5.40191 8.56382H7.8806V11.0425C7.8806 11.3846 8.1576 11.6622 8.50029 11.6622C8.84298 11.6622 9.11998 11.3846 9.11998 11.0425V8.56382H11.5987C11.9414 8.56382 12.2184 8.2862 12.2184 7.94414C12.2184 7.60207 11.9414 7.32445 11.5987 7.32445Z" fill="white"/>
    </g>
    <defs>
        <clipPath id="clip0_2641_22070">
            <rect width="16" height="16" fill="white" transform="translate(0.5)"/>
        </clipPath>
    </defs>
</svg>